<svg width="528" height="478" viewBox="0 0 528 478" fill="none" xmlns="http://www.w3.org/2000/svg">
<circle cx="302.12" cy="225" r="225" fill="url(#paint0_linear_4_54)"/>
<ellipse cx="21.4664" cy="41.3429" rx="21.4664" ry="30.212" fill="#C4C4C4"/>
<path d="M21.4666 11.1309H142.756C156.563 11.1309 167.756 22.3237 167.756 36.1309V188.23C167.756 205.903 153.429 220.23 135.756 220.23H37.4666C28.6301 220.23 21.4666 213.066 21.4666 204.23V11.1309Z" fill="#102D59"/>
<ellipse cx="42.933" cy="220.23" rx="21.4664" ry="30.212" fill="#C4C4C4"/>
<ellipse cx="167.756" cy="220.23" rx="21.4664" ry="30.212" fill="#C4C4C4"/>
<path d="M55.1977 40.052C56.0297 40 56.4457 40.3553 56.4457 41.118C56.4457 41.4993 56.3503 41.7853 56.1597 41.976C55.969 42.1667 55.6397 42.2793 55.1717 42.314L54.3917 42.392C53.2997 42.496 52.485 42.8773 51.9477 43.536C51.4277 44.1947 51.1677 44.992 51.1677 45.928V51.882C51.1677 52.298 51.0463 52.61 50.8037 52.818C50.561 53.026 50.249 53.13 49.8677 53.13C49.4863 53.13 49.1657 53.026 48.9057 52.818C48.663 52.61 48.5417 52.298 48.5417 51.882V41.3C48.5417 40.9013 48.663 40.598 48.9057 40.39C49.1657 40.1647 49.4863 40.052 49.8677 40.052C50.2143 40.052 50.5003 40.1647 50.7257 40.39C50.9683 40.598 51.0897 40.8927 51.0897 41.274V42.522C51.4363 41.7593 51.939 41.1787 52.5977 40.78C53.2563 40.3813 54.0017 40.1473 54.8337 40.078L55.1977 40.052ZM67.7412 49.802C67.9839 49.802 68.1832 49.8973 68.3392 50.088C68.4952 50.2787 68.5732 50.5213 68.5732 50.816C68.5732 51.3187 68.2612 51.7433 67.6372 52.09C67.0306 52.4367 66.3632 52.7053 65.6352 52.896C64.9246 53.0867 64.2399 53.182 63.5812 53.182C61.5706 53.182 59.9846 52.6013 58.8232 51.44C57.6619 50.2613 57.0812 48.658 57.0812 46.63C57.0812 45.33 57.3326 44.1773 57.8352 43.172C58.3552 42.1667 59.0746 41.3867 59.9932 40.832C60.9292 40.2773 61.9866 40 63.1652 40C64.8639 40 66.2072 40.546 67.1952 41.638C68.1832 42.73 68.6772 44.2033 68.6772 46.058C68.6772 46.7513 68.3652 47.098 67.7412 47.098H59.7072C59.8806 49.7847 61.1719 51.128 63.5812 51.128C64.2226 51.128 64.7772 51.0413 65.2452 50.868C65.7132 50.6947 66.2072 50.4693 66.7272 50.192C66.7792 50.1573 66.9179 50.088 67.1432 49.984C67.3859 49.8627 67.5852 49.802 67.7412 49.802ZM63.2172 41.924C62.2119 41.924 61.4059 42.2447 60.7992 42.886C60.1926 43.5273 59.8286 44.4287 59.7072 45.59H66.4152C66.3632 44.4113 66.0599 43.51 65.5052 42.886C64.9679 42.2447 64.2052 41.924 63.2172 41.924ZM75.991 53.182C74.223 53.182 72.7756 52.818 71.649 52.09C71.3369 51.8993 71.1116 51.7 70.9729 51.492C70.8516 51.284 70.7909 51.05 70.7909 50.79C70.7909 50.5127 70.8689 50.2787 71.0249 50.088C71.1809 49.8973 71.3803 49.802 71.6229 49.802C71.8483 49.802 72.2036 49.9407 72.689 50.218C73.209 50.4953 73.7116 50.7207 74.1969 50.894C74.6996 51.0673 75.3236 51.154 76.069 51.154C76.901 51.154 77.551 51.0067 78.019 50.712C78.487 50.4173 78.721 50.0013 78.721 49.464C78.721 49.1173 78.6256 48.84 78.435 48.632C78.2616 48.424 77.9496 48.242 77.499 48.086C77.0483 47.9127 76.381 47.7307 75.497 47.54C73.9716 47.2107 72.8709 46.7687 72.1949 46.214C71.5363 45.642 71.2069 44.8707 71.2069 43.9C71.2069 43.1547 71.4236 42.4873 71.8569 41.898C72.2903 41.2913 72.8883 40.8233 73.651 40.494C74.4136 40.1647 75.2803 40 76.2509 40C76.9443 40 77.6203 40.0953 78.279 40.286C78.9376 40.4593 79.5183 40.7193 80.021 41.066C80.593 41.4473 80.879 41.8893 80.879 42.392C80.879 42.6693 80.7923 42.9033 80.619 43.094C80.463 43.2847 80.2723 43.38 80.047 43.38C79.891 43.38 79.735 43.3453 79.579 43.276C79.423 43.2067 79.215 43.094 78.9549 42.938C78.487 42.6607 78.045 42.444 77.6289 42.288C77.2303 42.132 76.7276 42.054 76.1209 42.054C75.393 42.054 74.8036 42.21 74.3529 42.522C73.9196 42.834 73.703 43.2587 73.703 43.796C73.703 44.2813 73.9023 44.6627 74.301 44.94C74.717 45.2 75.4883 45.4513 76.6149 45.694C77.7763 45.9367 78.6863 46.214 79.345 46.526C80.0036 46.838 80.4716 47.228 80.749 47.696C81.0436 48.1467 81.191 48.7273 81.191 49.438C81.191 50.5647 80.7143 51.4747 79.761 52.168C78.825 52.844 77.5683 53.182 75.991 53.182ZM93.9419 40.052C94.3406 40.052 94.6526 40.1647 94.8779 40.39C95.1206 40.6153 95.2419 40.9273 95.2419 41.326V51.908C95.2419 52.272 95.1206 52.5667 94.8779 52.792C94.6353 53.0173 94.3146 53.13 93.9159 53.13C93.5519 53.13 93.2573 53.026 93.0319 52.818C92.8066 52.5927 92.6939 52.298 92.6939 51.934V50.946C92.2953 51.674 91.7406 52.2287 91.0299 52.61C90.3366 52.9913 89.5566 53.182 88.6899 53.182C85.6046 53.182 84.0619 51.4833 84.0619 48.086V41.326C84.0619 40.9273 84.1746 40.6153 84.3999 40.39C84.6426 40.1647 84.9719 40.052 85.3879 40.052C85.7866 40.052 86.0986 40.1647 86.3239 40.39C86.5666 40.6153 86.6879 40.9273 86.6879 41.326V48.06C86.6879 49.0827 86.8959 49.8367 87.3119 50.322C87.7279 50.8073 88.3693 51.05 89.2359 51.05C90.2586 51.05 91.0733 50.7207 91.6799 50.062C92.3039 49.4033 92.6159 48.528 92.6159 47.436V41.326C92.6159 40.9447 92.7373 40.6413 92.9799 40.416C93.2226 40.1733 93.5433 40.052 93.9419 40.052ZM113.477 40C116.319 40 117.741 41.7073 117.741 45.122V51.882C117.741 52.2807 117.619 52.5927 117.377 52.818C117.134 53.026 116.813 53.13 116.415 53.13C116.033 53.13 115.721 53.026 115.479 52.818C115.236 52.5927 115.115 52.2807 115.115 51.882V45.148C115.115 44.0907 114.924 43.328 114.543 42.86C114.161 42.3747 113.563 42.132 112.749 42.132C111.795 42.132 111.041 42.4613 110.487 43.12C109.932 43.7613 109.655 44.6453 109.655 45.772V51.882C109.655 52.2807 109.533 52.5927 109.291 52.818C109.048 53.026 108.727 53.13 108.329 53.13C107.947 53.13 107.635 53.026 107.393 52.818C107.15 52.5927 107.029 52.2807 107.029 51.882V45.148C107.029 44.0907 106.838 43.328 106.457 42.86C106.075 42.3747 105.477 42.132 104.663 42.132C103.709 42.132 102.947 42.4613 102.375 43.12C101.82 43.7613 101.543 44.6453 101.543 45.772V51.882C101.543 52.2807 101.421 52.5927 101.179 52.818C100.936 53.026 100.624 53.13 100.243 53.13C99.8613 53.13 99.5407 53.026 99.2807 52.818C99.038 52.5927 98.9167 52.2807 98.9167 51.882V41.3C98.9167 40.9187 99.0467 40.6153 99.3067 40.39C99.5667 40.1647 99.8787 40.052 100.243 40.052C100.607 40.052 100.901 40.1647 101.127 40.39C101.369 40.598 101.491 40.8927 101.491 41.274V42.236C101.872 41.508 102.401 40.9533 103.077 40.572C103.753 40.1907 104.533 40 105.417 40C106.387 40 107.185 40.1993 107.809 40.598C108.45 40.9967 108.927 41.612 109.239 42.444C109.62 41.6987 110.183 41.1093 110.929 40.676C111.674 40.2253 112.523 40 113.477 40ZM131.269 49.802C131.511 49.802 131.711 49.8973 131.867 50.088C132.023 50.2787 132.101 50.5213 132.101 50.816C132.101 51.3187 131.789 51.7433 131.165 52.09C130.558 52.4367 129.891 52.7053 129.163 52.896C128.452 53.0867 127.767 53.182 127.109 53.182C125.098 53.182 123.512 52.6013 122.351 51.44C121.189 50.2613 120.609 48.658 120.609 46.63C120.609 45.33 120.86 44.1773 121.363 43.172C121.883 42.1667 122.602 41.3867 123.521 40.832C124.457 40.2773 125.514 40 126.693 40C128.391 40 129.735 40.546 130.723 41.638C131.711 42.73 132.205 44.2033 132.205 46.058C132.205 46.7513 131.893 47.098 131.269 47.098H123.235C123.408 49.7847 124.699 51.128 127.109 51.128C127.75 51.128 128.305 51.0413 128.773 50.868C129.241 50.6947 129.735 50.4693 130.255 50.192C130.307 50.1573 130.445 50.088 130.671 49.984C130.913 49.8627 131.113 49.802 131.269 49.802ZM126.745 41.924C125.739 41.924 124.933 42.2447 124.327 42.886C123.72 43.5273 123.356 44.4287 123.235 45.59H129.943C129.891 44.4113 129.587 43.51 129.033 42.886C128.495 42.2447 127.733 41.924 126.745 41.924Z" fill="white"/>
<line x1="50.881" y1="69.8622" x2="115.285" y2="69.8622" stroke="white"/>
<line x1="50.881" y1="110.41" x2="115.285" y2="110.41" stroke="white"/>
<line x1="50.8836" y1="100.472" x2="144.915" y2="100.472" stroke="white"/>
<line x1="50.8836" y1="79.8004" x2="98.5934" y2="79.8004" stroke="white"/>
<rect x="341.873" y="69.9646" width="185.247" height="28.6219" rx="14.311" fill="#00F9F9" fill-opacity="0.41"/>
<rect x="77.1202" y="335.512" width="185.247" height="28.6219" rx="14.311" fill="#F90000" fill-opacity="0.53"/>
<rect x="302.12" y="31.8021" width="185.247" height="28.6219" rx="14.311" fill="#8CF900" fill-opacity="0.49"/>
<rect x="3.97528" y="298.94" width="185.247" height="28.6219" rx="14.311" fill="#C9AD48" fill-opacity="0.45"/>
<path d="M306.318 465.936C304.689 471.461 308.83 477 314.591 477C318.883 477 322.522 473.844 323.129 469.595L328.787 430.003C329.515 424.905 329.521 419.729 328.803 414.63L323.058 373.809C322.491 369.778 319.041 366.781 314.971 366.781C309.262 366.781 305.315 372.487 307.328 377.828L317.725 405.408C320.07 411.631 320.322 418.45 318.441 424.829L306.318 465.936Z" fill="#0A203F" stroke="white" stroke-width="2"/>
<path d="M341.556 249.577C344.827 251.627 346.359 255.585 345.319 259.303L340.316 277.191C336.813 289.715 344.683 302.578 357.429 305.16L383.766 310.495C387.171 311.185 388.584 315.278 386.329 317.922C385.148 319.306 383.258 319.856 381.519 319.321L343.092 307.489C331.982 304.068 324.795 293.323 325.875 281.748L328.263 256.148C328.866 249.692 336.061 246.135 341.556 249.577Z" fill="#0A203F" stroke="#D8E6F2" stroke-width="2"/>
<path d="M298.904 273.319C294.84 256.801 307.344 240.847 324.355 240.847C340.067 240.847 352.248 254.575 350.379 270.175L344.131 322.312C343.528 327.345 343.618 332.437 344.399 337.445L349.08 367.47C351.577 383.483 339.193 397.946 322.987 397.946C306.339 397.946 293.844 382.73 297.083 366.401L305.931 321.784C307.371 314.522 307.2 307.032 305.431 299.843L298.904 273.319Z" fill="#F47176" stroke="#0A1325" stroke-width="3"/>
<circle cx="322.292" cy="206.803" r="27.303" fill="#D8E6F2" stroke="#0A203F" stroke-width="3"/>
<path d="M331.866 259.861C334.069 261.882 334.854 265.023 333.862 267.844L326.535 288.661C323.456 297.409 324.507 307.081 329.393 314.964L339.236 330.846C340.783 333.342 340.334 336.586 338.166 338.568C335.004 341.459 329.925 340.277 328.363 336.287L316.86 306.899C315.415 303.206 314.923 299.209 315.431 295.275L319.411 264.409C320.186 258.406 327.405 255.77 331.866 259.861Z" fill="#0A203F" stroke="#D8E6F2" stroke-width="2"/>
<path d="M319.785 465.936C318.155 471.461 322.297 477 328.057 477C332.349 477 335.988 473.844 336.595 469.595L342.253 430.003C342.982 424.905 342.987 419.729 342.27 414.63L336.524 373.809C335.957 369.778 332.508 366.781 328.437 366.781C322.729 366.781 318.781 372.487 320.795 377.828L331.191 405.408C333.537 411.631 333.788 418.45 331.907 424.829L319.785 465.936Z" fill="#0A203F" stroke="white" stroke-width="2"/>
<rect x="308.303" y="367.782" width="68" height="38.8769" transform="rotate(-23.5582 308.303 367.782)" fill="#102D59" stroke="#D8E6F2"/>
<rect x="324.62" y="345.261" width="2.83333" height="13.1231" transform="rotate(-23.5582 324.62 345.261)" fill="#102D59" stroke="#D8E6F2"/>
<rect x="343.067" y="337.217" width="2.83333" height="13.1231" transform="rotate(-23.5582 343.067 337.217)" fill="#102D59" stroke="#D8E6F2"/>
<rect x="325.88" y="348.152" width="3.15385" height="22.9583" transform="rotate(-113.558 325.88 348.152)" fill="#102D59" stroke="#D8E6F2"/>
<defs>
<linearGradient id="paint0_linear_4_54" x1="302.12" y1="0" x2="302.12" y2="450" gradientUnits="userSpaceOnUse">
<stop stop-color="#19538D"/>
<stop offset="1" stop-color="#DCD9FF" stop-opacity="0"/>
</linearGradient>
</defs>
</svg>
